<?xml version="1.0" ?><!DOCTYPE svg  PUBLIC '-//W3C//DTD SVG 1.1//EN'  'http://www.w3.org/Graphics/SVG/1.1/DTD/svg11.dtd'><svg style="fill:#808080;" enable-background="new 0 0 24 24" height="24px" id="Layer_1" version="1.1" viewBox="0 0 24 24" width="24px" xml:space="preserve" xmlns="http://www.w3.org/2000/svg" xmlns:xlink="http://www.w3.org/1999/xlink"><g><g><path d="M19.7,23.5H4.3c-2.1,0-3.8-1.7-3.8-3.8V4.3c0-2.1,1.7-3.8,3.8-3.8h15.3c2.1,0,3.8,1.7,3.8,3.8v15.3    C23.5,21.8,21.8,23.5,19.7,23.5z M4.3,1.5c-1.6,0-2.8,1.3-2.8,2.8v15.3c0,1.6,1.3,2.8,2.8,2.8h15.3c1.6,0,2.8-1.3,2.8-2.8V4.3    c0-1.6-1.3-2.8-2.8-2.8H4.3z"/></g><g><g><path d="M11.1,20.1C11.1,20.1,11,20.1,11.1,20.1c-0.8,0-1.4-0.5-1.6-1.2L9,17.8L8,18.2c-0.3,0.1-0.6,0.1-0.8,0.1c0,0-0.1,0-0.1,0     c0,0-0.2-0.1-0.2-0.1c0,0-0.1,0-0.1,0c0,0-0.1,0-0.1,0c0,0-0.1,0-0.1-0.1c-0.1-0.1-0.2-0.1-0.2-0.1c0,0-0.1-0.1-0.1-0.1     c0,0-0.1,0-0.1-0.1c0,0,0,0-0.1-0.1c0,0-0.1-0.1-0.1-0.1c0,0,0-0.1-0.1-0.1c0-0.1-0.1-0.1-0.1-0.2c0,0-0.1-0.1-0.1-0.2     c-0.3-0.9,0.2-1.9,1.1-2.2l1.1-0.4l-0.7-2.1l-1.1,0.4c-0.2,0.1-0.4,0.1-0.5,0.1c-0.2,0-0.2,0-0.3,0c0,0-0.1,0-0.1,0l-0.1,0     c0,0-0.1,0-0.1,0c0,0-0.1,0-0.1,0c0,0-0.1,0-0.1-0.1c0,0-0.1-0.1-0.1-0.1c0,0-0.1,0-0.1-0.1l-0.2-0.1c0,0-0.1-0.1-0.1-0.1     c0,0-0.1-0.1-0.1-0.1c0,0-0.1-0.1-0.1-0.1c0,0-0.1-0.1-0.1-0.2c0,0-0.1-0.1-0.1-0.2c-0.3-0.9,0.2-1.9,1.1-2.2l1.1-0.4L5.8,8     C5.5,7.1,5.9,6.1,6.9,5.8C7.7,5.5,8.8,6,9,6.9L9.4,8l2.2-0.7l-0.4-1.1c-0.1-0.4-0.1-0.9,0.1-1.3c0.2-0.4,0.6-0.7,1-0.9     c0.9-0.3,1.9,0.2,2.2,1.1L15,6.2L16,5.8c0.9-0.3,1.9,0.2,2.2,1.1c0.1,0.4,0.1,0.9-0.1,1.3C18,8.5,17.7,8.8,17.4,9     c-0.1,0.1-0.2,0.1-0.3,0.1l-1.1,0.4l0.7,2.1l1.1-0.4c0.9-0.3,1.9,0.2,2.2,1.1c0.1,0.4,0.1,0.9-0.1,1.3c-0.2,0.4-0.6,0.7-1,0.9     l-1.1,0.4l0.4,1.1c0.1,0.4,0.1,0.9-0.1,1.3c-0.2,0.4-0.6,0.7-1,0.9c-0.2,0.1-0.4,0.1-0.5,0.1c-0.8,0-1.4-0.5-1.7-1.2L14.6,16     l-2.2,0.7l0.4,1.1c0.1,0.4,0.1,0.9-0.1,1.3c-0.2,0.4-0.6,0.7-1,0.9C11.4,20.1,11.3,20.1,11.1,20.1z M9.4,16.7     c0.2,0,0.4,0.1,0.5,0.3l0.5,1.6c0.1,0.3,0.4,0.5,0.7,0.5l0,0.5v-0.5c0.1,0,0.2,0,0.2,0c0.2-0.1,0.3-0.2,0.4-0.4     c0.1-0.2,0.1-0.4,0-0.6l-0.5-1.6c-0.1-0.3,0.1-0.5,0.3-0.6l3.2-1.1c0.3-0.1,0.5,0.1,0.6,0.3l0.5,1.6c0.1,0.3,0.4,0.5,0.7,0.5     c0.1,0,0.2,0,0.3,0c0.2-0.1,0.3-0.2,0.4-0.4c0.1-0.2,0.1-0.4,0-0.6l-0.5-1.6c-0.1-0.3,0.1-0.5,0.3-0.6l1.5-0.5     c0.2-0.1,0.3-0.2,0.4-0.4c0.1-0.2,0.1-0.4,0-0.6c-0.1-0.4-0.6-0.6-0.9-0.5l-1.5,0.5c-0.3,0.1-0.5-0.1-0.6-0.3l-1-3.1     C14.9,9,15,8.8,15.3,8.7l1.5-0.5c0,0,0.1,0,0.1-0.1c0.1-0.1,0.2-0.2,0.3-0.3c0.1-0.2,0.1-0.4,0-0.6c-0.1-0.4-0.6-0.6-0.9-0.5     l-1.5,0.5c-0.1,0-0.3,0-0.4,0c-0.1-0.1-0.2-0.2-0.3-0.3l-0.5-1.6c-0.1-0.4-0.6-0.6-0.9-0.5c-0.2,0.1-0.3,0.2-0.4,0.4     c-0.1,0.2-0.1,0.4,0,0.6l0.5,1.6c0.1,0.3-0.1,0.5-0.3,0.6L9.3,9.1c-0.1,0-0.3,0-0.4,0C8.8,9,8.7,8.9,8.6,8.8L8.1,7.2     C8,6.8,7.6,6.6,7.2,6.8C6.8,6.9,6.6,7.3,6.7,7.7l0.5,1.6c0,0.1,0,0.3,0,0.4S7,9.9,6.9,9.9l-1.5,0.5C5,10.6,4.8,11,4.9,11.4     c0,0,0,0.1,0.1,0.1c0,0,0.1,0.1,0.1,0.1c0,0,0.1,0.1,0.1,0.1l-0.2,0.5l0.3-0.4l-0.1,0.5l0.2-0.4c0,0,0.1,0,0.1,0l0.1,0.5l0-0.5     c0.1,0,0.1,0,0.2,0l1.5-0.5c0.1,0,0.3,0,0.4,0C7.9,11.4,8,11.5,8,11.6l1,3.1C9.1,15,9,15.2,8.7,15.3l-1.5,0.5     c-0.4,0.1-0.6,0.5-0.5,0.9c0,0,0.1,0.1,0.1,0.1c0,0,0.1,0.1,0.1,0.1c0,0,0.1,0.1,0.1,0.1c0,0,0.1,0.1,0.1,0.1l0.1,0.1     c0,0,0.1,0,0.1,0c0,0,0.1,0,0.1,0c0,0,0,0,0,0c0,0,0,0,0,0c0.1,0,0.2,0,0.3,0l1.5-0.5C9.3,16.7,9.3,16.7,9.4,16.7z"/></g><g><path d="M10.9,14.6c-0.1,0-0.2,0-0.2-0.1c-0.1-0.1-0.2-0.2-0.3-0.3l-1-3.1c0-0.1,0-0.3,0-0.4s0.2-0.2,0.3-0.3l3.2-1.1     c0.3-0.1,0.5,0.1,0.6,0.3l1,3.1c0,0.1,0,0.3,0,0.4c-0.1,0.1-0.2,0.2-0.3,0.3l-3.2,1.1C11,14.6,11,14.6,10.9,14.6z M10.5,11.3     l0.7,2.1l2.2-0.7l-0.7-2.1L10.5,11.3z"/></g></g></g></svg>
