<?xml version="1.0" encoding="utf-8"?>
<!-- Generator: Adobe Illustrator 22.0.0, SVG Export Plug-In . SVG Version: 6.00 Build 0)  -->
<svg version="1.1" id="Capa_1" xmlns="http://www.w3.org/2000/svg" xmlns:xlink="http://www.w3.org/1999/xlink" x="0px" y="0px"
	 viewBox="0 0 73.8 73.8" style="enable-background:new 0 0 73.8 73.8;" xml:space="preserve">
<style type="text/css">
	.st0{fill:#4C3D91;}
	.st1{fill:#FFFFFF;}
</style>

<defs>
    <linearGradient id="grad1" x1="0%" y1="0%" x2="100%" y2="100%">
        <stop offset="0%" stop-opacity="0.75" style="stop-color:#AAAAAA;" />
        <stop offset="58%" stop-opacity="0.5" style="stop-color:#AAAAAA;" />
        <stop offset="58%" stop-opacity="0.25" style="stop-color:#AAAAAA;" />
        <stop offset="100%" stop-opacity="0.05" style="stop-color:#AAAAAA;" />
    </linearGradient>
</defs>

<rect width="73.8" height="73.8" fill="#FFFFFF" />
<rect width="73.8" height="73.8" fill="url(#grad1)" />

<g>
	<path class="st0" d="M12.7,30.7c4,5.3,1.9-0.3,7.3-0.3s8-5.1,7.9-10.4S16.2,7.7,11.1,9.4C7.9,10.6,9.5,26.4,12.7,30.7z"/>
	<path class="st1" d="M14.6,25.1c2.3,3,9.3-1.9,9.3-5c0-3.1-6.7-7.1-9.6-6C12.4,14.7,12.7,22.6,14.6,25.1z"/>
	<path class="st0" d="M61,30.6c-3.9,5.3-1.9-0.2-7.3-0.2s-8-5-8-10.4S57.4,7.6,62.4,9.3C65.7,10.4,64.2,26.3,61,30.6z"/>
	<path class="st1" d="M59.1,25c-2.3,3.1-9.3-1.8-9.3-4.9s6.7-7.1,9.6-6.1C61.2,14.6,60.9,22.5,59.1,25z"/>
	<g>
		<path class="st0" d="M30.7,60.8c0.2,2.1,2.6,3.6,4.9,2.1c0.5-0.3,0.8-0.9,0.9-1.4c0.1-0.3,0.4-0.6,0.8-0.6c0.4,0,0.7,0.2,0.8,0.6
			c0.1,0.5,0.3,0.9,0.7,1.2c2.3,1.8,4.9,0.3,5.1-1.9c0-0.3,0.2-0.6,0.5-0.7c0.3-0.1,0.6,0,0.8,0.2c0.6,0.6,1.3,1,2.1,1c0,0,0,0,0,0
			c1,0,2-0.5,2.6-1.5c0.4-0.6,0.5-1.2,0.4-2c0-0.3,0.1-0.6,0.3-0.8c0.2-0.2,0.6-0.2,0.8,0c0.6,0.3,1.3,0.5,2,0.3
			c1.1-0.2,2-1.1,2.3-2.1c0.2-0.7,0.1-1.4-0.2-2.1c-0.1-0.3-0.1-0.6,0.1-0.8c0.2-0.2,0.5-0.3,0.8-0.3c0.7,0.1,1.3,0.1,1.9-0.2
			c0.9-0.4,1.5-1.2,1.7-2.2c0.2-1-0.1-1.9-0.8-2.6c-0.2-0.2-0.3-0.5-0.2-0.8c0.1-0.3,0.4-0.5,0.7-0.5c0.7,0,1.5-0.2,2-0.8
			c1.7-1.8,0.9-4.2-1-5c-0.3-0.1-0.5-0.4-0.5-0.8c0-0.3,0.3-0.6,0.6-0.7c0.6-0.1,1.1-0.4,1.5-0.8c1.6-2.1,0.3-4.7-1.8-5
			c-0.3,0-0.6-0.3-0.6-0.6c-0.1-0.3,0-0.6,0.3-0.8c0.8-0.6,1.2-1.4,1.2-2.3c0-0.3-0.1-0.7-0.3-1c-1.3-2-2.1-2.2-3-2.1
			c-0.3,0-0.6-0.1-0.7-0.4c-0.2-0.3-0.1-0.6,0-0.8c0.3-0.5,0.5-1,0.5-1.6c0-0.7-0.2-1.4-0.6-1.9c-0.6-0.7-1.4-1.1-2.3-1.2
			c-0.4,0-0.8,0.1-1.2,0.2c-0.3,0.1-0.6,0.1-0.8-0.2c-0.2-0.2-0.3-0.5-0.2-0.8c0.2-0.6,0.2-1.2,0-1.8c-0.4-1.1-1.3-1.9-2.5-2.1
			c-0.8-0.1-1.6,0.1-2.3,0.7c-0.2,0.2-0.6,0.2-0.8,0.1c-0.3-0.1-0.4-0.4-0.4-0.7c0.1-1.2-0.5-2.2-1.4-2.7c-1.8-0.9-3.5,0-4.2,1.3
			c-0.2,0.3-0.5,0.5-0.8,0.4c-0.3,0-0.6-0.3-0.6-0.6c-0.2-1-0.8-1.8-1.7-2.2c-1.9-0.8-3.9,0.3-4.2,2.1c-0.1,0.3-0.3,0.6-0.6,0.6
			c-0.3,0.1-0.6-0.1-0.8-0.4C32,13.1,31,12.5,30,12.5c-1.6,0-3,1.3-3.1,2.9c0,0,0,0.1,0,0.1l0,0.1c0,0.3-0.2,0.6-0.4,0.7
			c-0.3,0.1-0.6,0.1-0.8-0.1c-0.6-0.5-1.4-0.7-2.3-0.6c-1.1,0.1-2.1,1-2.4,2.1c-0.2,0.6-0.2,1.2,0,1.8c0.1,0.3,0,0.6-0.2,0.8
			c-0.2,0.2-0.5,0.3-0.8,0.2c-0.6-0.2-1.2-0.3-1.8-0.1c-1.1,0.3-2,1.2-2.2,2.3c-0.2,0.8,0,1.6,0.5,2.3c0.2,0.2,0.2,0.6,0,0.8
			c-0.2,0.3-0.4,0.4-0.7,0.4l-0.1,0c0,0-0.1,0-0.1,0c-1.6,0-3,1.3-3.1,2.9c0,1,0.5,2,1.3,2.6c0.3,0.2,0.4,0.5,0.3,0.8
			c-0.1,0.3-0.4,0.6-0.7,0.6c-0.5,0-1,0.2-1.4,0.5c-2.1,2-0.9,4.8,1.2,5.3c0.3,0.1,0.6,0.4,0.6,0.7c0,0.3-0.2,0.7-0.5,0.8
			c-0.4,0.2-0.8,0.4-1.1,0.8c-1.6,2.3,0,4.9,2.2,4.9c0.3,0,0.6,0.2,0.7,0.5c0.1,0.3,0.1,0.6-0.2,0.8c-0.6,0.6-0.9,1.4-0.8,2.2
			c0.1,1.1,0.8,2.1,1.9,2.6c0.6,0.3,1.2,0.3,1.8,0.2c0.3-0.1,0.6,0,0.8,0.3c0.2,0.2,0.2,0.6,0.1,0.8c-0.3,0.6-0.4,1.3-0.2,2
			c0.3,1.1,1.1,1.9,2.2,2.2c1,0.2,1.7-0.1,2.2-0.3c0.2-0.1-1.3,3.6-2.4,6.1c-0.3,0.8,0.5,1.7,1.4,1.3C25.1,63.1,30.7,60.6,30.7,60.8
			z"/>
	</g>
	<g>
		<circle class="st1" cx="24.9" cy="38.3" r="3.7"/>
		<path class="st1" d="M40.7,38.3c0,2.1-1.7,3.7-3.7,3.7c-2.1,0-3.7-1.7-3.7-3.7S40.7,36.2,40.7,38.3z"/>
		<circle class="st1" cx="49" cy="38.3" r="3.7"/>
	</g>
</g>
</svg>
