<?xml version="1.0" encoding="UTF-8" standalone="no"?>
<!-- Generator: Adobe Illustrator 22.0.0, SVG Export Plug-In . SVG Version: 6.00 Build 0)  -->
<svg xmlns:dc="http://purl.org/dc/elements/1.1/" xmlns:cc="http://creativecommons.org/ns#" xmlns:rdf="http://www.w3.org/1999/02/22-rdf-syntax-ns#" xmlns:svg="http://www.w3.org/2000/svg" xmlns="http://www.w3.org/2000/svg" xmlns:sodipodi="http://sodipodi.sourceforge.net/DTD/sodipodi-0.dtd" xmlns:inkscape="http://www.inkscape.org/namespaces/inkscape" version="1.1" x="0px" y="0px" viewBox="0 0 181.4 181.9" style="enable-background:new 0 0 181.4 181.9;" xml:space="preserve" id="svg1838" sodipodi:docname="logo 1.svg" inkscape:version="0.92.4 (33fec40, 2019-01-16)"><metadata id="metadata1844"><rdf:RDF><cc:Work rdf:about=""><dc:format>image/svg+xml</dc:format><dc:type rdf:resource="http://purl.org/dc/dcmitype/StillImage"/><dc:title/></cc:Work></rdf:RDF></metadata><defs id="defs1842"/><sodipodi:namedview pagecolor="#ffffff" bordercolor="#666666" borderopacity="1" objecttolerance="10" gridtolerance="10" guidetolerance="10" inkscape:pageopacity="0" inkscape:pageshadow="2" inkscape:window-width="704" inkscape:window-height="421" id="namedview1840" showgrid="false" inkscape:zoom="1.2974162" inkscape:cx="90.699997" inkscape:cy="90.949997" inkscape:window-x="263" inkscape:window-y="69" inkscape:window-maximized="0" inkscape:current-layer="Capa_1"/>
<style type="text/css" id="style1809">
	.st0{fill:url(#SVGID_1_);}
	.st1{fill:#F094BE;}
	.st2{fill:#4D3F92;}
	.st3{fill:#FFFFFF;}
</style>
<g id="Capa_1">
	<linearGradient id="SVGID_1_" gradientUnits="userSpaceOnUse" x1="90.891" y1="0.2799" x2="90.891" y2="181.8763" gradientTransform="translate(-208.87669,-5.3953388)">
		<stop offset="0" style="stop-color:#F6BFD9" id="stop1811"/>
		<stop offset="0.9951" style="stop-color:#F3A8CA" id="stop1813"/>
	</linearGradient>
	
	
<rect style="fill:#f5b4d2;fill-opacity:1;fill-rule:evenodd;stroke-width:1.00426447" id="rect2421" width="181.22926" height="181.89998" x="0.77076268" y="4.0409178e-09" ry="24.875212" rx="37.767372"/><path style="fill:#f094be;fill-opacity:1;stroke:#000000;stroke-width:1px;stroke-linecap:butt;stroke-linejoin:miter;stroke-opacity:0.03157893" d="M 181.89998,30.830509 0.77076269,142.59109 l 3.1e-7,16.18602 6.166101,10.01992 8.47839,7.70763 v 0 l 12.332203,6.93686 123.322033,-0.77076 13.10296,-3.85382 10.01992,-6.1661 5.39534,-6.1661 3.08305,-3.85381 z" id="path6142" inkscape:connector-curvature="0" sodipodi:nodetypes="ccccccccccccc"/><g transform="translate(0.73671391,0.62957477)" id="Capa_2"><g id="g6254"><path inkscape:connector-curvature="0" class="st2" d="m 151.6,95.1 c 1.5,-0.3 2.8,-1 3.8,-2 4,-5.3 0.8,-11.8 -4.5,-12.6 -0.8,0 -1.5,-0.8 -1.5,-1.5 0,-0.3 0,-0.5 0,-0.5 0.8,-0.8 1.5,-1.8 2.5,-3.3 8.1,-10.8 11.8,-50.6 3.8,-53.7 -9.8,-3.3 -29.7,6.3 -38.3,17.4 -0.5,-0.3 -1,-1 -1,-1.8 0.3,-3 -1.3,-5.5 -3.5,-6.8 -4.5,-2.3 -8.8,0 -10.6,3.3 -0.5,0.8 -1.3,1.3 -2,1 -0.8,0 -1.5,-0.8 -1.5,-1.5 -0.5,-2.5 -2,-4.5 -4.3,-5.5 -4.8,-2 -9.8,0.8 -10.6,5.3 -0.3,0.8 -0.8,1.5 -1.5,1.5 -0.8,0.3 -1.5,-0.3 -2,-1 -1.5,-2.3 -4,-3.8 -6.5,-3.8 -4,0 -7.6,3.3 -7.8,7.3 v 0.3 0.3 c 0,0.8 -0.5,1.5 -1,1.8 H 64.8 C 56.5,28.5 36.3,18.6 26.3,21.9 c -8.1,2.8 -4.3,42.6 4,53.4 1.5,2 2.8,3.5 3.8,4.5 -0.3,0.8 -1,1.5 -1.8,1.5 -1.3,0 -2.5,0.5 -3.5,1.3 -5.3,5 -2.3,12.1 3,13.4 0.8,0.3 1.5,1 1.5,1.8 0,0.8 -0.5,1.8 -1.3,2 -1,0.5 -2,1 -2.8,2 -4,5.8 0,12.3 5.5,12.3 0.8,0 1.5,0.5 1.8,1.3 0.3,0.8 0.3,1.5 -0.5,2 -1.5,1.5 -2.3,3.5 -2,5.5 0.3,2.8 2,5.3 4.8,6.5 1.5,0.8 3,0.8 4.5,0.5 0.8,-0.3 1.5,0 2,0.8 0.5,0.5 0.5,1.5 0.3,2 -0.8,1.5 -1,3.3 -0.5,5 0.8,2.8 2.8,4.8 5.5,5.5 2.5,0.5 4.3,-0.3 5.5,-0.8 0.5,-0.3 -3.3,9.1 -6,15.4 -0.8,2 1.3,4.3 3.5,3.3 8.3,-3.8 22.2,-10.3 22.2,-9.8 0.5,5.3 6.5,9.1 12.3,5.3 1.3,-0.8 2,-2.3 2.3,-3.5 0.3,-0.8 1,-1.5 2,-1.5 1,0 1.8,0.5 2,1.5 0.3,1.3 0.8,2.3 1.8,3 5.8,4.5 12.3,0.8 12.8,-4.8 0,-0.8 0.5,-1.5 1.3,-1.8 0.8,-0.3 1.5,0 2,0.5 1.5,1.5 3.3,2.5 5.3,2.5 v 0 c 2.5,0 5,-1.3 6.5,-3.8 1,-1.5 1.3,-3 1,-5 0,-0.8 0.3,-1.5 0.8,-2 0.5,-0.5 1.5,-0.5 2,0 1.5,0.8 3.3,1.3 5,0.8 2.8,-0.5 5,-2.8 5.8,-5.3 0.5,-1.8 0.3,-3.5 -0.5,-5.3 -0.3,-0.8 -0.3,-1.5 0.3,-2 0.6,-0.5 1.3,-0.8 2,-0.8 1.8,0.3 3.3,0.3 4.8,-0.5 2.3,-1 3.8,-3 4.3,-5.5 0.5,-2.5 -0.3,-4.8 -2,-6.5 -0.5,-0.5 -0.8,-1.3 -0.5,-2 0.3,-0.7 1,-1.3 1.8,-1.3 1.8,0 3.8,-0.5 5,-2 4.3,-4.5 2.3,-10.6 -2.5,-12.6 -0.8,-0.3 -1.3,-1 -1.3,-2 0,-0.9 0.7,-1.6 1.5,-1.6 z" id="path6240" style="fill:#4d3f92"/><path inkscape:connector-curvature="0" class="st3" d="m 131.4,42.2 c 0.5,1.5 0.5,3 0,4.5 -0.3,0.8 0,1.5 0.5,2 0.5,0.5 1.3,0.8 2,0.5 1,-0.5 2,-0.5 3,-0.5 2.3,0 4.3,1 5.8,3 1,1.3 1.8,3 1.5,4.8 0,1.5 -0.5,2.8 -1.3,4 -0.5,0.5 -0.5,1.5 0,2 0.3,0.3 0.5,0.8 1,0.8 1,-0.3 2,-1 2.8,-2 4.5,-6.3 5.3,-26.2 0.8,-27.7 -4.5,-1.5 -12.3,1.5 -17.9,6 1.1,0.5 1.6,1.3 1.8,2.6 z" id="path6242" style="fill:#ffffff"/><path inkscape:connector-curvature="0" class="st3" d="m 39,63.6 c 0.3,-0.3 0.5,-0.5 0.8,-0.8 0.5,-0.8 0.3,-1.5 0,-2 C 38.5,59 38.2,57 38.5,55 39,52.2 41.3,50 44,49.2 c 1.5,-0.5 3,-0.3 4.5,0.3 0.8,0.3 1.5,0 2,-0.5 0.5,-0.5 0.8,-1.3 0.5,-2 -0.5,-1.5 -0.5,-3 0,-4.5 0.3,-1 0.8,-2 1.5,-2.8 -5.5,-4.5 -13.9,-7.8 -18.4,-6.3 -4.5,1.5 -3.7,21.4 0.9,27.7 1,1.5 2.2,2.2 4,2.5 z" id="path6244" style="fill:#ffffff"/><g id="g6252"><circle class="st3" cx="60.900002" cy="94.599998" r="9.3000002" id="circle6246" style="fill:#ffffff"/><path inkscape:connector-curvature="0" class="st3" d="m 100.7,94.6 c 0,5.3 -4.3,9.3 -9.3,9.3 -5.3,0 -9.3,-4.3 -9.3,-9.3 0,-5 18.6,-5.3 18.6,0 z" id="path6248" style="fill:#ffffff"/><circle class="st3" cx="121.6" cy="94.599998" r="9.3000002" id="circle6250" style="fill:#ffffff"/></g></g></g></g>

</svg>